# xmcd
#
# Track frame offsets:
#	150
#	13801
#	26414
#	40124
#	53185
#	67045
#	80760
#	94492
#	107857
#	121679
#	135390
#	148034
#	161418
#	175113
#	188489
#	201913
#	215600
#	228526
#
# Disc length: 3216 seconds
#
# Revision: 1
# Processed by: cddbd v1.4PL0 Copyright (c) Steve Scherf et al.
# Submitted via: audiograbber 1.80.04
#
DISCID=fc0c8e12
DTITLE=Macedonian EUROSONG 2002 - EUROSONG 2002
DYEAR=1900
DGENRE=Rock
TTITLE0=Pesna za tebe- Georgi Krstevski
TTITLE1=Lejdi - Fani
TTITLE2=Neobicen krug - Biba
TTITLE3=Somnez - Zarmena
TTITLE4=Veti mi - Vera Jankovikj
TTITLE5=Lice i opacina - Lidija Kocovska
TTITLE6=Od nas zavisi - Karolina Goceva
TTITLE7=Kazi mi kazi - Marijan i grupa LOZEN
TTITLE8=Kako mi e mene - Ana Simonovska
TTITLE9=Sakam da sme zaeno - Pece Ognenov
TTITLE10=O seri, mon seri - Andrijan Janevska
TTITLE11=Sekjavanja - Dekso i Suzana
TTITLE12=Nema vekje pesni tazni - Risto Samardziev
TTITLE13=Kje te najdam - grupa BAGAZ
TTITLE14=Za samo edna nokj - Aneta Eftimova
TTITLE15=Izgrev - Tijana
TTITLE16=Koga molcat ocite - Marija Georgieva i Gjoko Taneski
TTITLE17=Totalen kolaps - Ljupco Angelov
EXTD=
EXTT0=
EXTT1=
EXTT2=
EXTT3=
EXTT4=
EXTT5=
EXTT6=
EXTT7=
EXTT8=
EXTT9=
EXTT10=
EXTT11=
EXTT12=
EXTT13=
EXTT14=
EXTT15=
EXTT16=
EXTT17=
PLAYORDER=
